<svg width="775" height="480" viewBox="0 0 775 480" fill="none" xmlns="http://www.w3.org/2000/svg">
<rect width="767" height="480" rx="32" fill="#F6F6F6"/>
<path d="M407.006 420.289C396.823 420.289 391.538 413.973 391.538 401.855V264.055C391.538 250.004 399.401 241.496 411.905 241.496C423.12 241.496 429.694 246.781 435.752 262.637L477.131 364.988H478.42L519.67 262.508C525.729 246.523 532.174 241.496 543.647 241.496C556.409 241.496 563.756 249.746 563.756 264.055V401.855C563.756 413.715 558.084 420.289 547.901 420.289C537.846 420.289 532.561 413.973 532.561 401.855V301.953H531.401L495.694 389.48C490.924 401.598 485.639 405.465 477.776 405.465C469.784 405.465 464.498 401.34 459.729 389.48L424.022 301.953H422.862V401.855C422.862 413.715 417.19 420.289 407.006 420.289ZM588.197 396.699V265.344C588.197 250.52 595.802 243.043 611.4 243.043H661.545C693.513 243.043 713.623 259.801 713.623 286.355C713.623 306.207 702.279 320.516 683.459 324.898V326.445C707.177 328.637 722.646 345.395 722.646 369.371C722.646 399.535 698.67 419 661.416 419H611.4C595.802 419 588.197 411.652 588.197 396.699ZM622.744 316.262H645.689C669.021 316.262 679.334 307.625 679.334 292.285C679.334 277.977 669.795 269.211 653.552 269.211H622.744V316.262ZM622.744 392.832H648.525C675.982 392.832 687.197 384.066 687.197 367.309C687.197 350.68 676.111 340.496 655.744 340.496H622.744V392.832Z" fill="black"/>
<rect y="77" width="767" height="70" fill="black"/>
<rect x="26" y="245" width="303" height="26" rx="13" fill="black"/>
<rect x="26" y="285" width="210" height="26" rx="13" fill="black"/>
</svg>
